<svg width="27" height="34" viewBox="0 0 27 34" fill="none" xmlns="http://www.w3.org/2000/svg">
<path d="M4.13477 26.6484V26.6289H5.44336V25.3691H4.11523V24.2461H2.66016V25.3691H1.32227V26.6289H2.66016V26.6484C2.65527 27.9912 2.31348 29.3975 0.980469 30.1543L1.85938 31.3262C2.61133 30.9062 3.10449 30.2178 3.40723 29.3975C3.70996 30.1348 4.19336 30.7402 4.93555 31.1016L5.7168 30.0713V32.5762H7.20117V28.5625H7.66992V32.9668H9.16406V23.9336H7.66992V27.3125H7.20117V24.041H5.7168V29.9248C4.43262 29.2119 4.12988 27.9229 4.13477 26.6484ZM13.7148 24.5098H10.1113V29.207H10.7559C12.0498 29.2119 12.9482 29.1826 13.998 29.0117L13.8516 27.7617C13.0996 27.8789 12.4307 27.918 11.6055 27.9375V27.4199H13.6367V26.248H11.6055V25.75H13.7148V24.5098ZM11.3223 31.0332H16.0977V32.9668H17.6602V29.793H11.3223V31.0332ZM14.252 29.4121H15.707V27.3027H16.1758V29.4707H17.6602V23.9531H16.1758V26.0625H15.707V24.0996H14.252V29.4121ZM26.166 23.9531H24.6133V29.4316H26.166V23.9531ZM18.5684 28.1328L18.7148 29.3047C20.292 29.3047 22.3818 29.2803 24.2812 28.9336L24.1934 27.8691C23.5781 27.9473 22.9287 28.0059 22.2793 28.0449V27.459H23.7148V26.2188H20.8242V25.6133H23.6758V24.373H19.2617V27.459H20.6875V28.1084C19.9307 28.1279 19.208 28.1328 18.5684 28.1328ZM19.9062 32.8887H26.166V29.7344H19.9062V32.8887ZM21.4395 31.6387V30.9648H24.6523V31.6387H21.4395Z" fill="#F4851E"/>
<path d="M12.6 13.2L19.65 6.15L18.25 4.75L12.6 10.4L9.75 7.55L8.35 8.95L12.6 13.2ZM5 18V0H23V18H5ZM6.25 16.5H21.5V1.5H6.5L6.25 16.5Z" fill="#F57A08"/>
</svg>
