<svg width="85" height="20" viewBox="0 0 85 20" fill="none" xmlns="http://www.w3.org/2000/svg">
<path d="M0 0.409302H4.70187L10.2887 12.2865L15.8973 0.409302H20.572V19.5852H16.0113V9.95954L11.3963 19.5906H9.18656L4.58785 9.95954V19.5906H0V0.409302Z" fill="#F57906"/>
<path d="M27.3322 18.7342C25.7576 17.8939 24.5143 16.7196 23.5967 15.2114C22.6846 13.7032 22.2285 11.9688 22.2285 10.0135C22.2285 8.05818 22.6846 6.31835 23.5967 4.79936C24.5089 3.28037 25.7522 2.10073 27.3322 1.26044C28.9121 0.420146 30.6712 0 32.6258 0C34.5804 0 36.3178 0.420146 37.8924 1.26044C39.4669 2.10073 40.7102 3.28037 41.6115 4.79936C42.5128 6.31835 42.9688 8.05279 42.9688 10.0135C42.9688 11.9742 42.5182 13.7032 41.6115 15.2114C40.7102 16.7196 39.4669 17.8939 37.8924 18.7342C36.3178 19.5745 34.5587 19.9946 32.6258 19.9946C30.693 19.9946 28.9067 19.5745 27.3322 18.7342ZM35.308 14.7859C36.1169 14.3496 36.763 13.714 37.2408 12.8952C37.7186 12.0711 37.9575 11.1123 37.9575 10.0135C37.9575 8.91463 37.724 7.96122 37.2517 7.14786C36.7793 6.33451 36.1387 5.70429 35.3297 5.25721C34.5207 4.81013 33.614 4.5839 32.6204 4.5839C31.6268 4.5839 30.693 4.81013 29.884 5.25721C29.075 5.70429 28.4343 6.33451 27.962 7.14786C27.4896 7.96122 27.2561 8.91463 27.2561 10.0135C27.2561 11.1123 27.4896 12.0711 27.962 12.8952C28.4343 13.7194 29.075 14.3496 29.8948 14.7859C30.7147 15.2276 31.6214 15.443 32.6204 15.443C33.6194 15.443 34.4935 15.2222 35.3025 14.7859H35.308Z" fill="#F57906"/>
<path d="M44.624 0.409302H49.3259L54.9127 12.2865L60.5268 0.409302H65.2015V19.5852H60.6408V9.95954L56.0258 19.5906H53.816L49.2282 9.95954V19.5906H44.6403V0.409302H44.624Z" fill="#F57906"/>
<path d="M69.4852 17.6784C68.0084 16.1325 67.2754 14.091 67.2754 11.5486V0.409302H72.1673V11.6024C72.1673 12.8844 72.5148 13.854 73.2043 14.5111C73.8938 15.1683 74.8494 15.4968 76.0656 15.4968C77.2818 15.4968 78.2319 15.1683 78.916 14.5111C79.6001 13.854 79.9368 12.8844 79.9368 11.6024V0.409302H84.8287V11.5486C84.8287 14.1071 84.0957 16.1594 82.6298 17.6945C81.1638 19.2297 78.9758 19.9999 76.0602 19.9999C73.1446 19.9999 70.9565 19.2297 69.4797 17.6838L69.4852 17.6784Z" fill="#F57906"/>
</svg>
