<svg width="78" height="72" viewBox="0 0 78 72" fill="none" xmlns="http://www.w3.org/2000/svg">
<rect width="78" height="72" fill="#F8F8F8"/>
<path d="M29.3984 52.8379H27.5918V50.6357C28.2607 50.2207 28.6611 49.6006 28.666 48.834C28.6611 47.3936 27.2402 46.4463 25.3164 46.4414C23.3828 46.4463 21.9766 47.3936 21.9766 48.834C21.9766 49.6152 22.3916 50.2451 23.0801 50.6602V52.8379H21.2637V53.8633H29.3984V52.8379ZM23.207 48.834C23.207 47.9404 24.042 47.4229 25.3164 47.4277C26.5713 47.4229 27.4307 47.9404 27.4355 48.834C27.4307 49.7031 26.5713 50.2402 25.3164 50.2402C24.042 50.2402 23.207 49.7031 23.207 48.834ZM24.3105 52.8379V51.1143C24.623 51.1729 24.96 51.207 25.3164 51.207C25.6729 51.207 26.0146 51.1729 26.332 51.1094V52.8379H24.3105ZM34.9746 46.9395H33.1973V45.9727H31.9375V46.9395H30.1504V47.916H31.9375C31.9277 48.9219 31.2686 49.9375 29.8477 50.3477L30.4336 51.3145C31.4834 51.0117 32.1963 50.3623 32.582 49.542C32.9873 50.2646 33.6953 50.8262 34.7109 51.0801L35.2871 50.123C33.8564 49.7568 33.1924 48.8291 33.1777 47.916H34.9746V46.9395ZM31.3027 53.1992C31.3027 54.2783 32.4746 54.9033 34.3594 54.8984C36.2539 54.9033 37.4209 54.2783 37.4258 53.1992C37.4209 52.1348 36.2539 51.5342 34.3594 51.5293C32.4746 51.5342 31.3027 52.1348 31.3027 53.1992ZM32.543 53.1992C32.543 52.7256 33.1826 52.4863 34.3594 52.4863C35.5605 52.4863 36.1807 52.7256 36.1855 53.1992C36.1807 53.6875 35.5605 53.9512 34.3594 53.9512C33.1826 53.9512 32.543 53.6875 32.543 53.1992ZM34.7109 49.3906H36.1562V51.3828H37.3965V46.0117H36.1562V48.3945H34.7109V49.3906ZM45.5605 46.0117H44.3301V54.8984H45.5605V50.5137H46.8691V49.4883H45.5605V46.0117ZM38.5 48.3359H43.7246V47.3398H41.7617V46.1484H40.5117V47.3398H38.5V48.3359ZM38.8613 50.9531C38.8564 52.1934 39.8232 53.0674 41.1367 53.0723C42.4307 53.0674 43.4023 52.1934 43.4023 50.9531C43.4023 49.7129 42.4307 48.8291 41.1367 48.834C39.8232 48.8291 38.8564 49.7129 38.8613 50.9531ZM40.0527 50.9531C40.0527 50.2695 40.5068 49.8496 41.1367 49.8398C41.7568 49.8496 42.2109 50.2695 42.2109 50.9531C42.2109 51.6416 41.7568 52.0518 41.1367 52.0469C40.5068 52.0518 40.0527 51.6416 40.0527 50.9531ZM54.6621 46.0117H53.4023V54.8984H54.6621V46.0117ZM47.2207 52.3789L47.875 53.375C51.0488 51.876 51.9912 49.6348 51.9961 46.9395H47.6992V47.916H50.7266C50.5264 49.8887 49.5156 51.2949 47.2207 52.3789Z" fill="#191919"/>
<path d="M30 31.7998L28 37.9998L34.2 35.9998L30 31.7998Z" fill="#191919"/>
<path d="M40.7579 20.9999L31 30.7578L35.2426 35.0004L45.0005 25.2425L40.7579 20.9999Z" fill="#191919"/>
<rect x="41.5098" y="20.29" width="2.14069" height="5.94072" transform="rotate(-45 41.5098 20.29)" fill="#191919"/>
</svg>
