<svg width="78" height="72" viewBox="0 0 78 72" fill="none" xmlns="http://www.w3.org/2000/svg">
<rect width="78" height="72" fill="#F8F8F8"/>
<path fill-rule="evenodd" clip-rule="evenodd" d="M39 16C36.2375 16 34 18.2375 34 21C34 23.7625 36.2375 26 39 26C41.7625 26 44 23.7625 44 21C44 18.2375 41.7625 16 39 16ZM41.5 21C41.5 19.625 40.375 18.5 39 18.5C37.625 18.5 36.5 19.625 36.5 21C36.5 22.375 37.625 23.5 39 23.5C40.375 23.5 41.5 22.375 41.5 21ZM46.5 33.5C46.25 32.6125 42.375 31 39 31C35.6375 31 31.7875 32.6 31.5 33.5H46.5ZM29 33.5C29 30.175 35.6625 28.5 39 28.5C42.3375 28.5 49 30.175 49 33.5V36H29V33.5Z" fill="#191919"/>
<path d="M34.3594 50.8965H26.293V51.8047H34.3594V50.8965ZM26.957 45.7305H28.2266V48.543H26.9863V49.4023H33.627V48.543H32.3672V45.7305H33.6562V44.8613H26.957V45.7305ZM29.3105 48.543V45.7305H31.293V48.543H29.3105ZM43.002 50.9453H39.4863V49.5098H42.25V48.6211H36.9766V47.4785H42.0449V44.6465H35.873V45.5254H40.9707V46.6191H35.8926V49.5098H38.4121V50.9453H34.9355V51.8438H43.002V50.9453ZM50.9414 44.041H49.8574V48.5918H50.9414V44.041ZM43.7246 47.5078L43.8418 48.3672C45.3848 48.3672 47.416 48.3135 49.1738 48.0352L49.125 47.2539C48.7539 47.2979 48.3633 47.3369 47.9629 47.3662V45.4473H48.7539V44.6074H43.959V45.4473H44.7305V47.498C44.3789 47.5029 44.042 47.5078 43.7246 47.5078ZM45.0234 49.8125H49.8672V50.4473H45.043V52.791H51.2246V51.9316H46.1172V51.2383H50.9414V48.9629H45.0234V49.8125ZM45.7754 47.4736V45.4473H46.9277V47.4297C46.542 47.4492 46.1562 47.4639 45.7754 47.4736Z" fill="#191919"/>
</svg>
