<svg width="78" height="72" viewBox="0 0 78 72" fill="none" xmlns="http://www.w3.org/2000/svg">
<rect width="78" height="72" fill="#F8F8F8"/>
<path d="M37.7344 44.0117H36.4746V52.8984H37.7344V44.0117ZM30.2441 49.8418L30.3613 50.8574C31.9922 50.8477 34.0479 50.8135 35.9375 50.5059L35.8789 49.5781C35.5029 49.6221 35.1172 49.6611 34.7266 49.6904V45.8281H35.5176V44.832H30.4883V45.8281H31.2695V49.832C30.9082 49.8369 30.5664 49.8418 30.2441 49.8418ZM32.4805 49.8076V45.8281H33.5156V49.7686C33.1689 49.7881 32.8223 49.7979 32.4805 49.8076ZM46.1523 48.123H41.0938V45.7598H46.084V44.7539H39.8633V49.1191H46.1523V48.123ZM38.9062 51.8145H47.041V50.7891H38.9062V51.8145Z" fill="#191919"/>
<path d="M31 16H39H43H47V20.8571V25.7143V35.4286H31V16Z" stroke="#191919" stroke-width="2"/>
<line x1="33.2857" y1="20.7144" x2="44.7143" y2="20.7144" stroke="#191919" stroke-width="2"/>
<line x1="33.2857" y1="25.2856" x2="44.7143" y2="25.2856" stroke="#191919" stroke-width="2"/>
<line x1="33.2857" y1="29.8569" x2="42.4286" y2="29.8569" stroke="#191919" stroke-width="2"/>
</svg>
