<svg width="78" height="72" viewBox="0 0 78 72" fill="none" xmlns="http://www.w3.org/2000/svg">
<rect width="78" height="72" fill="#F8F8F8"/>
<path d="M37.7344 46.0117H36.4746V54.8984H37.7344V46.0117ZM30.2441 51.8418L30.3613 52.8574C31.9922 52.8477 34.0479 52.8135 35.9375 52.5059L35.8789 51.5781C35.5029 51.6221 35.1172 51.6611 34.7266 51.6904V47.8281H35.5176V46.832H30.4883V47.8281H31.2695V51.832C30.9082 51.8369 30.5664 51.8418 30.2441 51.8418ZM32.4805 51.8076V47.8281H33.5156V51.7686C33.1689 51.7881 32.8223 51.7979 32.4805 51.8076ZM46.1523 50.123H41.0938V47.7598H46.084V46.7539H39.8633V51.1191H46.1523V50.123ZM38.9062 53.8145H47.041V52.7891H38.9062V53.8145Z" fill="#A7A7A7"/>
<path d="M31 18H39H43H47V22.8571V27.7143V37.4286H31V18Z" stroke="#A7A7A7" stroke-width="2"/>
<line x1="33.2856" y1="22.7139" x2="44.7142" y2="22.7139" stroke="#A7A7A7" stroke-width="2"/>
<line x1="33.2856" y1="27.2861" x2="44.7142" y2="27.2861" stroke="#A7A7A7" stroke-width="2"/>
<line x1="33.2856" y1="31.8574" x2="42.4285" y2="31.8574" stroke="#A7A7A7" stroke-width="2"/>
</svg>
