<svg width="78" height="72" viewBox="0 0 78 72" fill="none" xmlns="http://www.w3.org/2000/svg">
<rect width="78" height="72" fill="#F8F8F8"/>
<path fill-rule="evenodd" clip-rule="evenodd" d="M39 18C36.2375 18 34 20.2375 34 23C34 25.7625 36.2375 28 39 28C41.7625 28 44 25.7625 44 23C44 20.2375 41.7625 18 39 18ZM41.5 23C41.5 21.625 40.375 20.5 39 20.5C37.625 20.5 36.5 21.625 36.5 23C36.5 24.375 37.625 25.5 39 25.5C40.375 25.5 41.5 24.375 41.5 23ZM46.5 35.5C46.25 34.6125 42.375 33 39 33C35.6375 33 31.7875 34.6 31.5 35.5H46.5ZM29 35.5C29 32.175 35.6625 30.5 39 30.5C42.3375 30.5 49 32.175 49 35.5V38H29V35.5Z" fill="#A7A7A7"/>
<path d="M34.3594 52.8965H26.293V53.8047H34.3594V52.8965ZM26.957 47.7305H28.2266V50.543H26.9863V51.4023H33.627V50.543H32.3672V47.7305H33.6562V46.8613H26.957V47.7305ZM29.3105 50.543V47.7305H31.293V50.543H29.3105ZM43.002 52.9453H39.4863V51.5098H42.25V50.6211H36.9766V49.4785H42.0449V46.6465H35.873V47.5254H40.9707V48.6191H35.8926V51.5098H38.4121V52.9453H34.9355V53.8438H43.002V52.9453ZM50.9414 46.041H49.8574V50.5918H50.9414V46.041ZM43.7246 49.5078L43.8418 50.3672C45.3848 50.3672 47.416 50.3135 49.1738 50.0352L49.125 49.2539C48.7539 49.2979 48.3633 49.3369 47.9629 49.3662V47.4473H48.7539V46.6074H43.959V47.4473H44.7305V49.498C44.3789 49.5029 44.042 49.5078 43.7246 49.5078ZM45.0234 51.8125H49.8672V52.4473H45.043V54.791H51.2246V53.9316H46.1172V53.2383H50.9414V50.9629H45.0234V51.8125ZM45.7754 49.4736V47.4473H46.9277V49.4297C46.542 49.4492 46.1562 49.4639 45.7754 49.4736Z" fill="#A7A7A7"/>
</svg>
