<svg width="78" height="72" viewBox="0 0 78 72" fill="none" xmlns="http://www.w3.org/2000/svg">
<rect width="78" height="72" fill="#F8F8F8"/>
<path d="M30.3984 50.8379H28.5918V48.6357C29.2607 48.2207 29.6611 47.6006 29.666 46.834C29.6611 45.3936 28.2402 44.4463 26.3164 44.4414C24.3828 44.4463 22.9766 45.3936 22.9766 46.834C22.9766 47.6152 23.3916 48.2451 24.0801 48.6602V50.8379H22.2637V51.8633H30.3984V50.8379ZM24.207 46.834C24.207 45.9404 25.042 45.4229 26.3164 45.4277C27.5713 45.4229 28.4307 45.9404 28.4355 46.834C28.4307 47.7031 27.5713 48.2402 26.3164 48.2402C25.042 48.2402 24.207 47.7031 24.207 46.834ZM25.3105 50.8379V49.1143C25.623 49.1729 25.96 49.207 26.3164 49.207C26.6729 49.207 27.0146 49.1729 27.332 49.1094V50.8379H25.3105ZM35.9746 44.9395H34.1973V43.9727H32.9375V44.9395H31.1504V45.916H32.9375C32.9277 46.9219 32.2686 47.9375 30.8477 48.3477L31.4336 49.3145C32.4834 49.0117 33.1963 48.3623 33.582 47.542C33.9873 48.2646 34.6953 48.8262 35.7109 49.0801L36.2871 48.123C34.8564 47.7568 34.1924 46.8291 34.1777 45.916H35.9746V44.9395ZM32.3027 51.1992C32.3027 52.2783 33.4746 52.9033 35.3594 52.8984C37.2539 52.9033 38.4209 52.2783 38.4258 51.1992C38.4209 50.1348 37.2539 49.5342 35.3594 49.5293C33.4746 49.5342 32.3027 50.1348 32.3027 51.1992ZM33.543 51.1992C33.543 50.7256 34.1826 50.4863 35.3594 50.4863C36.5605 50.4863 37.1807 50.7256 37.1855 51.1992C37.1807 51.6875 36.5605 51.9512 35.3594 51.9512C34.1826 51.9512 33.543 51.6875 33.543 51.1992ZM35.7109 47.3906H37.1562V49.3828H38.3965V44.0117H37.1562V46.3945H35.7109V47.3906ZM46.5605 44.0117H45.3301V52.8984H46.5605V48.5137H47.8691V47.4883H46.5605V44.0117ZM39.5 46.3359H44.7246V45.3398H42.7617V44.1484H41.5117V45.3398H39.5V46.3359ZM39.8613 48.9531C39.8564 50.1934 40.8232 51.0674 42.1367 51.0723C43.4307 51.0674 44.4023 50.1934 44.4023 48.9531C44.4023 47.7129 43.4307 46.8291 42.1367 46.834C40.8232 46.8291 39.8564 47.7129 39.8613 48.9531ZM41.0527 48.9531C41.0527 48.2695 41.5068 47.8496 42.1367 47.8398C42.7568 47.8496 43.2109 48.2695 43.2109 48.9531C43.2109 49.6416 42.7568 50.0518 42.1367 50.0469C41.5068 50.0518 41.0527 49.6416 41.0527 48.9531ZM55.6621 44.0117H54.4023V52.8984H55.6621V44.0117ZM48.2207 50.3789L48.875 51.375C52.0488 49.876 52.9912 47.6348 52.9961 44.9395H48.6992V45.916H51.7266C51.5264 47.8887 50.5156 49.2949 48.2207 50.3789Z" fill="#A7A7A7"/>
<path d="M31 29.8L29 36L35.2 34L31 29.8Z" fill="#A7A7A7"/>
<path d="M42.1626 18.6054L32.4047 28.3633L36.6472 32.6059L46.4051 22.848L42.1626 18.6054Z" fill="#A7A7A7"/>
<rect x="42.5096" y="18.29" width="2.14069" height="5.94072" transform="rotate(-45 42.5096 18.29)" fill="#A7A7A7"/>
</svg>
