<svg width="20" height="26" viewBox="0 0 20 26" fill="none" xmlns="http://www.w3.org/2000/svg">
<path d="M14.667 4.83366L13.0103 6.49033L11.1553 4.63533V17.667H8.84533V4.63533L6.99033 6.49033L5.33366 4.83366L10.0003 0.166992L14.667 4.83366ZM19.3337 10.667V23.5003C19.3337 24.7837 18.2837 25.8337 17.0003 25.8337H3.00033C2.38149 25.8337 1.78799 25.5878 1.35041 25.1502C0.912825 24.7127 0.666992 24.1192 0.666992 23.5003V10.667C0.666992 9.37199 1.70533 8.33366 3.00033 8.33366H6.50033V10.667H3.00033V23.5003H17.0003V10.667H13.5003V8.33366H17.0003C17.6192 8.33366 18.2127 8.57949 18.6502 9.01708C19.0878 9.45466 19.3337 10.0482 19.3337 10.667Z" fill="#191919"/>
</svg>
